HIERARCHY
ROOT pelvis
{
  OFFSET 0 100 0
  CHANNELS 6 Xposition Yposition Zposition Zrotation Xrotation Yrotation
  JOINT pelvis_right_femur
  {
    OFFSET -10.78128 -3.44521 -0.5502486
    CHANNELS 3 Zrotation Xrotation Yrotation
    JOINT right_femur_tibia
    {
      OFFSET -0.8047443 -44.0398 -0.1307829
      CHANNELS 3 Zrotation Xrotation Yrotation
      JOINT right_tibia_foot
      {
        OFFSET 3.006224 -47.83518 -5
        CHANNELS 3 Zrotation Xrotation Yrotation
        End Site
        {
          OFFSET 0 -5 15
        }
      }
    }
  }
  JOINT pelvis_left_femur
  {
    OFFSET 10.78128 -3.44521 -0.5502486
    CHANNELS 3 Zrotation Xrotation Yrotation
    JOINT left_femur_tibia
    {
      OFFSET 0.8047443 -44.0398 -0.1307829
      CHANNELS 3 Zrotation Xrotation Yrotation
      JOINT left_tibia_foot
      {
        OFFSET -4.370144 -48.10324 -4.275266
        CHANNELS 3 Zrotation Xrotation Yrotation
        End Site
        {
          OFFSET 0 -5 15
        }
      }
    }
  }
  JOINT pelvis_spine1
  {
    OFFSET 0 6.468898 -3.129235
    CHANNELS 3 Zrotation Xrotation Yrotation
    JOINT spine1
    {
      OFFSET 0 23.15396 4.99043
      CHANNELS 3 Zrotation Xrotation Yrotation
      JOINT spine2
      {
        OFFSET 0 20.79997 -5.064912
        CHANNELS 3 Zrotation Xrotation Yrotation
        JOINT neck
        {
          OFFSET 0 14.38658 9.616178
          CHANNELS 3 Zrotation Xrotation Yrotation
          End Site
          {
            OFFSET 0 20 0
          }
        }
      }
      JOINT right_manubrium
      {
        OFFSET -5.722621 16.35077 3.967754
        CHANNELS 3 Zrotation Xrotation Yrotation
        JOINT right_clavicle
        {
          OFFSET -13.16364 1.694482 -4.693211
          CHANNELS 3 Zrotation Xrotation Yrotation
          JOINT right_humerus
          {
            OFFSET -28.5034 -0.3100689 -2.792744
            CHANNELS 3 Zrotation Xrotation Yrotation
            JOINT right_radius
            {
              OFFSET -25.15693 0.02248979 -1.271978
              CHANNELS 3 Zrotation Xrotation Yrotation
              End Site
              {
                OFFSET -15 0 0
              }
            }
          }
        }
      }
      JOINT left_manubrium
      {
        OFFSET 5.722621 16.35077 3.967754
        CHANNELS 3 Zrotation Xrotation Yrotation
        JOINT left_clavicle
        {
          OFFSET 13.16364 1.694482 -4.693211
          CHANNELS 3 Zrotation Xrotation Yrotation
          JOINT left_humerus
          {
            OFFSET 29.39168 -1.063119 -2.237045
            CHANNELS 3 Zrotation Xrotation Yrotation
            JOINT left_radius
            {
              OFFSET 24.59957 -0.9528479 0.9047498
              CHANNELS 3 Zrotation Xrotation Yrotation
              End Site
              {
                OFFSET 15 -0 -0
              }
            }
          }
        }
      }
    }
  }
}
MOTION
Frames: 11
Frame Time: 0.0416666666667
0 103.5113 0 0.4148709 -0.6074491 -0.2064951 5.143962 -19.18137 10.77703 -0 41.19009 -0 -5.13566 -15.04862 -1.495315 -7.118149 9.972184 -24.30895 -0 6.814835 -0 12.94245 -14.91754 29.56666 -3.279996 -3.531475 5.308909 2.471006 10.4325 -6.709096 2.058092 21.70956 6.48591 3.220428 -25.19157 10.14296 7.329655 -20.60032 12.36132 83.72418 35.76659 -16.15028 -0 0 17.61298 -6.030593 8.881564 3.670174 6.039141 -18.91198 -1.355175 -94.10329 21.83161 22.86736 0 0 -13.82212 14.98502 16.98747 -3.258971
0.4729895 103.9789 1.488691 0.4216922 -0.6787879 -0.4365076 5.230025 -19.31907 10.86238 -0 41.0081 -0 -4.876483 -15.1787 -1.477179 -7.098392 10.13922 -24.2326 -0 6.848704 -0 13.27648 -14.75428 29.71427 -3.234524 -3.635848 5.394237 2.44442 10.53882 -6.687276 2.127573 21.63007 6.409832 3.152374 -25.11196 10.18999 7.254558 -20.6682 12.37108 83.73866 35.44399 -16.10998 -0 0 17.77696 -6.092039 9.062844 3.556594 6.116236 -18.96394 -1.381597 -93.89694 21.19532 22.66191 0 0 -13.86653 15.65713 16.84389 -4.106341
0.861558 104.1618 3.393093 0.3528291 -0.2624168 -0.5668915 5.198803 -21.84285 8.796162 -0 35.0768 -0 -5.71061 -12.7131 -1.284333 -6.904232 10.93067 -22.51615 -0 6.236753 -0 12.29812 -16.28834 27.86456 -3.071554 -3.416402 4.985874 2.468494 10.54103 -7.102998 1.816336 21.61335 6.640872 3.327949 -25.10695 9.794113 6.285786 -20.43288 12.14744 85.19112 34.54848 -17.81543 -0 0 16.21856 -7.590428 8.790348 4.281641 6.541301 -20.24651 -2.008081 -92.74619 21.55546 21.13633 0 0 -16.73858 14.79214 16.61297 -3.06157
1.183911 104.0936 5.617809 0.2390082 0.4132401 -0.6342756 5.404435 -24.29562 7.463085 -0 29.61566 -0 -6.022387 -11.33847 -1.088521 -6.738022 11.59528 -21.2277 -0 5.726661 -0 11.59813 -17.55646 26.4091 -2.87409 -3.337443 4.793291 2.566246 10.50276 -7.505865 1.582196 21.42356 6.825156 3.431815 -25.30622 9.568367 5.599996 -20.33421 11.98615 86.17974 34.03247 -19.22848 -0 0 15.2928 -8.433459 8.697726 4.614262 6.889819 -21.2275 -2.383848 -91.92875 21.81759 20.16474 0 0 -19.31617 14.15443 16.32965 -2.242001
1.432076 103.7563 8.272843 0.1199354 0.9208153 -0.6351383 5.501518 -26.76132 5.895876 -0 23.98629 -0 -6.390957 -9.522637 -0.9035391 -6.53888 12.47505 -19.66887 -0 5.699852 -0 10.76649 -18.66436 24.70908 -2.616544 -3.270214 4.555292 2.611379 10.53874 -7.88325 1.384061 21.24689 6.954131 3.506415 -25.34322 9.303802 4.765482 -20.15605 11.79915 87.33658 33.1049 -20.6712 -0 0 14.17343 -9.577725 8.696599 5.021781 7.265628 -22.31515 -2.862733 -90.85439 21.65598 18.84654 0 0 -21.91211 13.82791 15.95405 -1.837619
1.605922 103.1919 11.40493 -0.03374817 1.428317 -0.5778524 5.601995 -29.11315 4.38154 -0 18.51044 -0 -6.746193 -7.663748 -0.7188679 -6.33212 13.38093 -18.08162 -0 6.234036 -0 9.804683 -19.55696 22.88086 -2.30475 -3.231746 4.333696 2.652597 10.58919 -8.243107 1.212129 21.04428 7.05236 3.564082 -25.38029 9.048156 3.951294 -19.94703 11.61801 88.46384 32.12961 -22.05837 -0 0 13.06104 -10.68697 8.758778 5.390654 7.593648 -23.35611 -3.325969 -89.81196 21.36495 17.59817 0 0 -24.3678 13.58209 15.54961 -1.518898
1.704858 102.4568 15.08421 -0.2207389 1.841464 -0.4706881 5.679779 -31.17044 2.864072 -0 13.41452 -0 -7.167568 -5.590472 -0.534054 -6.116904 14.27927 -16.41346 -0 7.678973 -0 8.664634 -20.10244 20.86964 -1.927149 -3.213629 4.114204 2.666996 10.68653 -8.561336 1.071511 20.84581 7.105259 3.606228 -25.36805 8.778002 3.138481 -19.68333 11.44798 89.60211 31.0241 -23.36467 -0 0 11.88198 -11.84608 8.885781 5.763709 7.848593 -24.35321 -3.809311 -88.79058 20.87397 16.40132 0 0 -26.5693 13.45454 15.12095 -1.337349
1.73243 101.6545 19.36281 -0.446981 2.14498 -0.3276638 5.785058 -32.68267 1.460433 -0 9.099711 -0 -7.685419 -3.377482 -0.3492098 -5.89553 15.02124 -14.74852 -0 10.36361 -0 7.328468 -20.15819 18.71995 -1.483977 -3.211085 3.91674 2.657207 10.82994 -8.818135 0.9612469 20.6649 7.112119 3.639008 -25.33582 8.495452 2.39899 -19.37243 11.31052 90.69329 29.90669 -24.52905 -0 0 10.6808 -12.9604 9.065357 6.122102 7.969844 -25.22595 -4.28645 -87.91351 20.2972 15.43952 0 0 -28.32649 13.34915 14.70447 -1.158793
1.696504 100.9321 24.26686 -0.705952 2.274582 -0.171605 5.973562 -33.32987 0.292394 -0 6.033703 -0 -8.333015 -1.099639 -0.1688845 -5.663662 15.41593 -13.1612 -0 14.67288 -0 5.822833 -19.55435 16.52245 -0.9816727 -3.213861 3.766213 2.617067 11.03619 -8.984774 0.8822519 20.52795 7.065781 3.665411 -25.28614 8.195391 1.79712 -19.0293 11.23177 91.68842 28.86503 -25.47986 -0 0 9.502367 -13.9648 9.289844 6.455114 7.896026 -25.89878 -4.744195 -87.28317 19.72153 14.87156 0 0 -29.42688 13.19813 14.33563 -0.8907258
1.609549 100.4763 29.77153 -0.977625 2.158372 -0.03686455 6.305898 -32.78334 -0.4965987 -0 4.650634 -0 -9.117186 1.075535 -0.005971059 -5.411818 15.21684 -11.74459 -0 20.88284 -0 4.234415 -18.16313 14.44463 -0.4421804 -3.204574 3.699893 2.542977 11.32325 -9.034869 0.8313003 20.46481 6.961932 3.687014 -25.21958 7.873079 1.401815 -18.69123 11.24197 92.52226 28.00875 -26.1422 -0 0 8.428474 -14.78149 9.548107 6.745104 7.573665 -26.29859 -5.16393 -87.00344 19.26197 14.85796 0 0 -29.6867 12.9152 14.05303 -0.4225405
1.486024 100.4806 35.78048 -1.222355 1.709041 0.03056356 6.79201 -30.80367 -0.829818 -0 5.137394 -0 -10.00545 2.922172 0.11323 -5.129295 14.17152 -10.55589 -0 28.98842 -0 2.708203 -15.97307 12.70239 0.09447074 -3.157441 3.758903 2.429569 11.7159 -8.952114 0.8003954 20.5065 6.79787 3.700509 -25.10967 7.518295 1.244304 -18.41955 11.36706 93.13656 27.39592 -26.45347 -0 0 7.558389 -15.38503 9.830597 6.987024 6.987825 -26.40134 -5.539538 -87.12925 18.98905 15.47342 0 0 -29.04803 12.43943 13.87936 0.3081118
